<?xml version="1.0" encoding="UTF-8" standalone="no"?>
<svg
   version="1.1"
   viewBox="0.0 0.0 3401.5748031496064 1511.8110236220473"
   fill="none"
   stroke="none"
   stroke-linecap="square"
   stroke-miterlimit="10"
   id="svg9"
   sodipodi:docname="Miniatures Hugo.svg"
   xml:space="preserve"
   inkscape:version="1.4.3 (0d15f75042, 2025-12-25)"
   xmlns:inkscape="http://www.inkscape.org/namespaces/inkscape"
   xmlns:sodipodi="http://sodipodi.sourceforge.net/DTD/sodipodi-0.dtd"
   xmlns="http://www.w3.org/2000/svg"
   xmlns:svg="http://www.w3.org/2000/svg"><defs
     id="defs9" /><sodipodi:namedview
     id="namedview9"
     pagecolor="#ffffff"
     bordercolor="#000000"
     borderopacity="0.25"
     inkscape:showpageshadow="2"
     inkscape:pageopacity="0.0"
     inkscape:pagecheckerboard="0"
     inkscape:deskcolor="#d1d1d1"
     inkscape:zoom="0.53928308"
     inkscape:cx="1182.125"
     inkscape:cy="779.7389"
     inkscape:window-width="5120"
     inkscape:window-height="1355"
     inkscape:window-x="0"
     inkscape:window-y="0"
     inkscape:window-maximized="1"
     inkscape:current-layer="layer1" /><clipPath
     id="g3ccb66ed9af_0_0.0"><path
       d="m0 0l3401.5747 0l0 1511.811l-3401.5747 0l0 -1511.811z"
       clip-rule="nonzero"
       id="path1" /></clipPath><g
     clip-path="url(#g3ccb66ed9af_0_0.0)"
     id="g9"><path
       fill="#ffffff"
       d="m0 0l3401.5747 0l0 1511.811l-3401.5747 0z"
       fill-rule="evenodd"
       id="path2"
       style="fill:#191f2b;fill-opacity:1" /><path
       fill="#282d46"
       d="m2873.7427 -0.002061884l345.69873 0l182.6416 102.95896l0 272.70358l-445.06982 -250.88184c-35.64746 -20.099396 -66.25806 -63.214634 -79.33569 -107.44969l-3.9348145 -17.331036z"
       fill-rule="evenodd"
       id="path3" /><path
       fill="#0075bf"
       d="m2971.76 148.32745l430.28687 242.56198l0 103.15579l-397.71338 -224.18762c-17.980713 -10.138062 -32.573486 -35.754776 -32.573486 -57.2162l0 -64.31395z"
       fill-rule="evenodd"
       id="path4" /><path
       fill="#282d46"
       d="m528.34155 1511.7861l-345.6989 0l-182.64157 -102.9364l0 -272.64404l445.06976 250.82703c35.647675 20.09497 66.25824 63.200806 79.33569 107.42615l3.9349976 17.32727z"
       fill-rule="evenodd"
       id="path5" /><path
       fill="#0075bf"
       d="m430.3242 1363.489l-430.287 -242.50903l0 -103.13318l397.71338 224.13867c17.980713 10.135864 32.57361 35.74695 32.57361 57.203613l0 64.29993z"
       fill-rule="evenodd"
       id="path6" /><path
       fill="#000000"
       fill-opacity="0.0"
       d="m1025.2126 579.29395l1282.6301 0l0 353.22314l-1282.6301 0z"
       fill-rule="evenodd"
       id="path7" /><g
       transform="matrix(0.6262842519685039 0.0 0.0 0.6262821522309711 1025.2125984251968 579.2939658792651)"
       id="g8"><clipPath
         id="g3ccb66ed9af_0_0.1"><path
           d="m0 -1.1368684E-13l2048.0 0l0 564.0l-2048.0 0z"
           clip-rule="evenodd"
           id="path8" /></clipPath></g><g
       inkscape:label="Layer 1"
       id="layer1"
       transform="matrix(1.3014057,0,0,1.3014057,1025.2126,577.60637)"><g
         id="g15"
         transform="matrix(1.6090198,0,0,1.6090198,-189.84825,-405.54392)"
         style="fill:#ffffff;fill-opacity:1"><path
           class="st0"
           d="M 458.55,337.59 H 432.2 v -81.26 h 26.35 v 9.75 h -15.67 v 25.89 h 14.16 v 9.75 h -14.16 v 26.12 h 15.67 z"
           id="path1-3"
           style="fill:#ffffff;fill-opacity:1" /><path
           class="st0"
           d="m 464.71,289.88 c 0,-4.56 1.45,-8.2 4.35,-10.91 2.9,-2.71 6.6,-4.06 11.09,-4.06 4.49,0 8.2,1.35 11.14,4.06 2.94,2.71 4.41,6.35 4.41,10.91 v 47.71 h -10.68 v -47.71 c 0,-1.55 -0.45,-2.8 -1.34,-3.77 -0.89,-0.97 -2.07,-1.45 -3.54,-1.45 -1.47,0 -2.63,0.46 -3.48,1.39 -0.85,0.93 -1.28,2.21 -1.28,3.83 v 47.71 H 464.7 v -47.71 z"
           id="path2-6"
           style="fill:#ffffff;fill-opacity:1" /><path
           class="st0"
           d="m 503.25,289.88 c 0,-4.56 1.47,-8.2 4.41,-10.91 2.94,-2.71 6.66,-4.06 11.14,-4.06 4.49,0 8.18,1.35 11.09,4.06 2.9,2.71 4.35,6.35 4.35,10.91 v 6.73 h -10.68 v -6.73 c 0,-1.55 -0.43,-2.8 -1.28,-3.77 -0.85,-0.97 -2.01,-1.45 -3.48,-1.45 -1.47,0 -2.65,0.48 -3.54,1.45 -0.89,0.97 -1.33,2.23 -1.33,3.77 v 4.53 c 0,1.78 1.06,3.48 3.19,5.11 2.13,1.62 4.45,3.08 6.96,4.35 2.51,1.28 4.84,3.23 6.96,5.86 2.13,2.63 3.19,5.69 3.19,9.17 v 4.76 c 0,4.57 -1.47,8.2 -4.41,10.91 -2.94,2.71 -6.66,4.06 -11.14,4.06 -4.49,0 -8.18,-1.35 -11.09,-4.06 -2.9,-2.71 -4.35,-6.34 -4.35,-10.91 v -6.73 h 10.68 v 6.73 c 0,1.62 0.42,2.9 1.28,3.83 0.85,0.93 2.01,1.39 3.48,1.39 1.47,0 2.65,-0.48 3.54,-1.45 0.89,-0.97 1.33,-2.22 1.33,-3.77 v -4.76 c 0,-1.55 -0.7,-3 -2.09,-4.35 -1.39,-1.35 -3.08,-2.59 -5.05,-3.71 -1.97,-1.12 -3.97,-2.36 -5.98,-3.71 -2.01,-1.35 -3.71,-3.11 -5.11,-5.28 -1.39,-2.17 -2.09,-4.64 -2.09,-7.43 v -4.54 z"
           id="path3-0"
           style="fill:#ffffff;fill-opacity:1" /><path
           class="st0"
           d="m 541.78,289.88 c 0,-4.56 1.47,-8.2 4.41,-10.91 2.94,-2.71 6.65,-4.06 11.14,-4.06 4.49,0 8.18,1.35 11.09,4.06 2.9,2.71 4.35,6.35 4.35,10.91 v 6.85 c 0,2.71 -0.52,4.84 -1.57,6.38 -1.04,1.55 -2.81,2.86 -5.28,3.95 l -13.47,6.04 v 10.68 c 0,1.55 0.45,2.81 1.33,3.77 0.89,0.97 2.07,1.45 3.54,1.45 1.47,0 2.63,-0.48 3.48,-1.45 0.85,-0.97 1.28,-2.22 1.28,-3.77 v -6.85 h 10.68 v 6.85 c 0,4.57 -1.45,8.2 -4.35,10.91 -2.9,2.71 -6.6,4.06 -11.09,4.06 -4.49,0 -8.2,-1.35 -11.14,-4.06 -2.94,-2.71 -4.41,-6.34 -4.41,-10.91 v -33.9 z m 10.68,0 v 13 l 7.66,-3.48 c 1.31,-0.62 1.97,-1.51 1.97,-2.67 v -6.85 c 0,-1.55 -0.43,-2.8 -1.28,-3.77 -0.85,-0.97 -2.01,-1.45 -3.48,-1.45 -1.47,0 -2.65,0.48 -3.54,1.45 -0.88,0.96 -1.33,2.22 -1.33,3.77 z"
           id="path4-6"
           style="fill:#ffffff;fill-opacity:1" /><path
           class="st0"
           d="m 581.37,265.44 c -1.16,-1.12 -1.74,-2.61 -1.74,-4.47 0,-1.86 0.58,-3.35 1.74,-4.47 1.16,-1.12 2.67,-1.68 4.53,-1.68 1.86,0 3.37,0.56 4.53,1.68 1.16,1.12 1.74,2.61 1.74,4.47 0,1.86 -0.58,3.35 -1.74,4.47 -1.16,1.12 -2.67,1.68 -4.53,1.68 -1.86,0 -3.37,-0.56 -4.53,-1.68 z m -0.82,10.62 h 10.68 v 61.52 h -10.68 z"
           id="path5-2"
           style="fill:#ffffff;fill-opacity:1" /><path
           class="st0"
           d="m 610.39,337.59 h -10.68 v -48.52 c 0,-4.33 1.29,-7.76 3.89,-10.27 2.59,-2.51 6.05,-3.77 10.39,-3.77 4.33,0 7.8,1.26 10.39,3.77 2.59,2.52 3.89,5.94 3.89,10.27 v 7.43 h -10.68 v -7.43 c 0,-2.86 -1.2,-4.29 -3.6,-4.29 -2.4,0 -3.6,1.43 -3.6,4.29 z"
           id="path6-6"
           style="fill:#ffffff;fill-opacity:1" /><path
           class="st0"
           d="m 633.02,252.85 h 10.68 v 26.12 c 1.39,-2.71 3.91,-4.06 7.55,-4.06 3.56,0 6.58,1.35 9.05,4.06 2.48,2.71 3.71,6.35 3.71,10.91 v 33.9 c 0,4.57 -1.45,8.2 -4.35,10.91 -2.9,2.71 -6.6,4.06 -11.09,4.06 -4.49,0 -8.2,-1.35 -11.14,-4.06 -2.94,-2.71 -4.41,-6.34 -4.41,-10.91 z m 19.04,33.25 c -0.85,-0.97 -2.01,-1.45 -3.48,-1.45 -1.47,0 -2.65,0.48 -3.54,1.45 -0.89,0.97 -1.33,2.23 -1.33,3.77 v 33.9 c 0,1.55 0.45,2.81 1.33,3.77 0.89,0.97 2.07,1.45 3.54,1.45 1.47,0 2.63,-0.48 3.48,-1.45 0.85,-0.97 1.28,-2.22 1.28,-3.77 v -33.9 c 0,-1.54 -0.43,-2.8 -1.28,-3.77 z"
           id="path7-1"
           style="fill:#ffffff;fill-opacity:1" /><path
           class="st0"
           d="m 670.52,309.96 v -9.75 h 19.27 v 9.75 z"
           id="path8-8"
           style="fill:#ffffff;fill-opacity:1" /><path
           class="st0"
           d="M 432.36,420.07 V 363.3 c 0,-5.41 1.58,-9.67 4.74,-12.78 3.16,-3.12 7.35,-4.67 12.58,-4.67 2.66,0 5.16,0.62 7.49,1.86 2.33,1.24 4.01,2.82 5.02,4.74 0.92,-2.01 2.47,-3.62 4.67,-4.81 2.2,-1.19 4.63,-1.79 7.29,-1.79 5.22,0 9.46,1.56 12.71,4.67 3.25,3.12 4.88,7.38 4.88,12.78 v 56.77 H 479.1 V 363.3 c 0,-1.83 -0.48,-3.28 -1.44,-4.33 -0.96,-1.05 -2.27,-1.58 -3.92,-1.58 -1.65,0 -2.96,0.53 -3.92,1.58 -0.96,1.05 -1.44,2.5 -1.44,4.33 v 56.77 H 455.73 V 363.3 c 0,-1.83 -0.5,-3.28 -1.51,-4.33 -1.01,-1.05 -2.38,-1.58 -4.12,-1.58 -3.39,0 -5.09,1.97 -5.09,5.91 v 56.77 z"
           id="path9"
           style="fill:#ffffff;fill-opacity:1" /><path
           class="st0"
           d="m 510.55,379.09 h -10.68 v -6.73 c 0,-4.57 1.47,-8.2 4.41,-10.91 2.94,-2.71 6.66,-4.06 11.14,-4.06 4.49,0 8.18,1.35 11.09,4.06 2.9,2.71 4.35,6.35 4.35,10.91 v 33.9 c 0,4.57 -1.45,8.2 -4.35,10.91 -2.9,2.71 -6.6,4.06 -11.09,4.06 -4.57,0 -8.3,-1.33 -11.2,-4 -2.9,-2.67 -4.35,-6.33 -4.35,-10.97 v -5.69 c 0,-6.58 3.13,-11.1 9.4,-13.58 l 10.91,-4.53 v -10.1 c 0,-1.55 -0.43,-2.8 -1.28,-3.77 -0.85,-0.97 -2.01,-1.45 -3.48,-1.45 -1.47,0 -2.65,0.48 -3.54,1.45 -0.89,0.97 -1.33,2.23 -1.33,3.77 z m 0,27.16 c 0,1.55 0.44,2.81 1.33,3.77 0.89,0.97 2.07,1.45 3.54,1.45 1.47,0 2.63,-0.48 3.48,-1.45 0.85,-0.97 1.28,-2.22 1.28,-3.77 v -13.7 l -6.15,2.67 c -2.32,0.93 -3.48,2.71 -3.48,5.34 z"
           id="path10"
           style="fill:#ffffff;fill-opacity:1" /><path
           class="st0"
           d="m 535.39,368.29 v -9.75 h 6.04 v -13.47 h 10.68 v 13.47 h 8.59 v 9.75 h -8.59 v 37.61 c 0,3.56 1.55,5.34 4.64,5.34 1.16,0 2.48,-0.31 3.95,-0.93 v 9.52 c -1.7,0.77 -3.56,1.16 -5.57,1.16 -4.26,0 -7.6,-1.26 -10.04,-3.77 -2.44,-2.51 -3.66,-6.29 -3.66,-11.32 v -37.61 z"
           id="path11"
           style="fill:#ffffff;fill-opacity:1" /><path
           class="st0"
           d="m 565.45,420.07 v -47.94 c 0,-4.57 1.33,-8.16 4,-10.8 2.67,-2.63 6.21,-3.95 10.62,-3.95 2.24,0 4.35,0.52 6.33,1.57 1.97,1.04 3.38,2.38 4.24,4 0.77,-1.7 2.09,-3.06 3.95,-4.06 1.86,-1 3.91,-1.51 6.15,-1.51 4.41,0 7.99,1.32 10.74,3.95 2.75,2.63 4.12,6.23 4.12,10.8 v 47.94 h -10.68 v -47.94 c 0,-1.55 -0.41,-2.77 -1.22,-3.66 -0.81,-0.89 -1.92,-1.33 -3.31,-1.33 -1.39,0 -2.5,0.45 -3.31,1.33 -0.81,0.89 -1.22,2.11 -1.22,3.66 v 47.94 h -10.68 v -47.94 c 0,-1.55 -0.43,-2.77 -1.28,-3.66 -0.85,-0.89 -2.01,-1.33 -3.48,-1.33 -2.86,0 -4.29,1.67 -4.29,4.99 v 47.94 z"
           id="path12"
           style="fill:#ffffff;fill-opacity:1" /><path
           class="st0"
           d="m 623.61,372.36 c 0,-4.57 1.47,-8.2 4.41,-10.91 2.94,-2.71 6.65,-4.06 11.14,-4.06 4.49,0 8.18,1.35 11.09,4.06 2.9,2.71 4.35,6.35 4.35,10.91 v 6.85 c 0,2.71 -0.52,4.84 -1.57,6.38 -1.04,1.55 -2.81,2.86 -5.28,3.95 l -13.47,6.04 v 10.68 c 0,1.55 0.45,2.81 1.33,3.77 0.89,0.97 2.07,1.45 3.54,1.45 1.47,0 2.63,-0.48 3.48,-1.45 0.85,-0.97 1.28,-2.22 1.28,-3.77 v -6.85 h 10.68 v 6.85 c 0,4.57 -1.45,8.2 -4.35,10.91 -2.9,2.71 -6.6,4.06 -11.09,4.06 -4.49,0 -8.2,-1.35 -11.14,-4.06 -2.94,-2.71 -4.41,-6.34 -4.41,-10.91 v -33.9 z m 10.68,0 v 13 l 7.66,-3.48 c 1.31,-0.62 1.97,-1.51 1.97,-2.67 v -6.85 c 0,-1.55 -0.43,-2.8 -1.28,-3.77 -0.85,-0.97 -2.01,-1.45 -3.48,-1.45 -1.47,0 -2.65,0.48 -3.54,1.45 -0.88,0.96 -1.33,2.22 -1.33,3.77 z"
           id="path13"
           style="fill:#ffffff;fill-opacity:1" /><path
           class="st0"
           d="m 662.15,372.36 c 0,-4.57 1.47,-8.2 4.41,-10.91 2.94,-2.71 6.65,-4.06 11.14,-4.06 4.49,0 8.18,1.35 11.09,4.06 2.9,2.71 4.35,6.35 4.35,10.91 v 6.73 h -10.68 v -6.73 c 0,-1.55 -0.43,-2.8 -1.28,-3.77 -0.85,-0.97 -2.01,-1.45 -3.48,-1.45 -1.47,0 -2.65,0.48 -3.54,1.45 -0.89,0.97 -1.33,2.23 -1.33,3.77 v 33.9 c 0,1.55 0.45,2.81 1.33,3.77 0.89,0.97 2.07,1.45 3.54,1.45 1.47,0 2.63,-0.48 3.48,-1.45 0.85,-0.97 1.28,-2.22 1.28,-3.77 v -6.73 h 10.68 v 6.73 c 0,4.57 -1.45,8.2 -4.35,10.91 -2.9,2.71 -6.6,4.06 -11.09,4.06 -4.49,0 -8.2,-1.35 -11.14,-4.06 -2.94,-2.71 -4.41,-6.34 -4.41,-10.91 z"
           id="path14"
           style="fill:#ffffff;fill-opacity:1" /><path
           class="st0"
           d="m 710.21,379.09 h -10.68 v -6.73 c 0,-4.57 1.47,-8.2 4.41,-10.91 2.94,-2.71 6.66,-4.06 11.14,-4.06 4.49,0 8.18,1.35 11.09,4.06 2.9,2.71 4.35,6.35 4.35,10.91 v 33.9 c 0,4.57 -1.45,8.2 -4.35,10.91 -2.9,2.71 -6.6,4.06 -11.09,4.06 -4.57,0 -8.3,-1.33 -11.2,-4 -2.9,-2.67 -4.35,-6.33 -4.35,-10.97 v -5.69 c 0,-6.58 3.13,-11.1 9.4,-13.58 l 10.91,-4.53 v -10.1 c 0,-1.55 -0.43,-2.8 -1.28,-3.77 -0.85,-0.97 -2.01,-1.45 -3.48,-1.45 -1.47,0 -2.65,0.48 -3.54,1.45 -0.89,0.97 -1.33,2.23 -1.33,3.77 z m 0,27.16 c 0,1.55 0.44,2.81 1.33,3.77 0.89,0.97 2.07,1.45 3.54,1.45 1.47,0 2.63,-0.48 3.48,-1.45 0.85,-0.97 1.28,-2.22 1.28,-3.77 v -13.7 l -6.15,2.67 c -2.32,0.93 -3.48,2.71 -3.48,5.34 z"
           id="path15"
           style="fill:#ffffff;fill-opacity:1" /></g><g
         id="g25"
         transform="matrix(1.6090198,0,0,1.6090198,-189.84825,-405.54392)"><path
           class="st1"
           d="m 179.21,271.59 c 1.43,-1.21 2.23,-2.91 2.23,-4.91 0,-4.36 -3.32,-7.18 -8.47,-7.18 h -10.42 v 26 h 9.72 c 6.27,0 10.16,-3.1 10.16,-8.1 0,-2.55 -1.2,-4.63 -3.22,-5.81 m -9.91,3.59 h 2.62 c 3.77,0 3.77,1.12 3.77,2.02 0,0.66 0,2.22 -3.94,2.22 h -2.45 z m 2.42,-6.15 h -2.42 v -3.51 h 2.06 c 3.34,0 3.34,0.94 3.34,1.62 0,0.47 0,1.89 -2.98,1.89"
           id="path16"
           style="fill:#ffffff;fill-opacity:1" /><path
           class="st1"
           d="m 202.29,258.91 c -8.14,0 -13.83,5.56 -13.83,13.53 0,7.92 5.82,13.66 13.83,13.66 8.07,0 13.93,-5.75 13.93,-13.66 0,-7.97 -5.73,-13.53 -13.93,-13.53 m 0.04,20.88 c -3.98,0 -6.75,-3.02 -6.75,-7.35 0,-4.29 2.78,-7.28 6.75,-7.28 4,0 6.79,2.99 6.79,7.28 -0.01,4.33 -2.8,7.35 -6.79,7.35"
           id="path17"
           style="fill:#ffffff;fill-opacity:1" /><path
           class="st1"
           d="m 242.66,267.51 c 0,-4.94 -3.8,-8 -9.92,-8 h -9.43 v 26 h 6.75 v -9.93 h 0.99 l 5.43,9.93 h 8.07 l -6.58,-10.94 c 2.96,-1.23 4.69,-3.78 4.69,-7.06 m -12.6,-1.92 h 2.48 c 2.24,0 3.38,0.64 3.38,1.89 0,0.63 0,2.12 -3.74,2.12 h -2.12 z"
           id="path18"
           style="fill:#ffffff;fill-opacity:1" /><path
           class="st1"
           d="m 259.34,259.51 h -9.59 v 26 h 9.59 c 6.85,0 14.23,-4.07 14.23,-13 0,-9.59 -7.35,-13 -14.23,-13 m -2.84,6.14 h 2.19 c 7.03,0 7.84,3.91 7.84,6.85 0,5.61 -4.27,6.78 -7.84,6.78 h -2.19 z"
           id="path19"
           style="fill:#ffffff;fill-opacity:1" /><polygon
           class="st1"
           points="298.75,259.51 280.66,259.51 280.66,285.51 299.35,285.51 299.35,279.23 287.4,279.23 287.4,275.18 298.16,275.18 298.16,269.1 287.4,269.1 287.4,265.72 298.75,265.72 "
           id="polygon19"
           style="fill:#ffffff;fill-opacity:1" /><path
           class="st1"
           d="m 314.26,259.5 -11.31,26 h 7.51 l 2.12,-5.36 H 321 l 2.18,5.36 h 7.59 l -11.2,-26 z m 4.27,14.5 H 315 l 1.79,-4.63 z"
           id="path20"
           style="fill:#ffffff;fill-opacity:1" /><path
           class="st1"
           d="m 349.49,275.45 c 0,1.98 -0.69,4.34 -3.97,4.34 -3.29,0 -3.97,-2.36 -3.97,-4.34 V 259.5 h -6.75 v 16.11 c 0,6.17 4.41,10.49 10.72,10.49 6.31,0 10.72,-4.31 10.72,-10.49 V 259.5 h -6.74 v 15.95 z"
           id="path21"
           style="fill:#ffffff;fill-opacity:1" /><polygon
           class="st1"
           points="369.66,271.72 360.72,285.51 368.85,285.51 373.63,277.49 378.62,285.51 387.02,285.51 377.74,271.8 385.71,259.51 377.81,259.51 373.77,266.3 369.67,259.51 361.51,259.51 "
           id="polygon21"
           style="fill:#ffffff;fill-opacity:1" /><path
           class="st1"
           d="m 344.36,300.1 h -30.47 c -10.16,0 -18.39,8.24 -18.39,18.4 v 101.62 h 23.43 v -98.23 h 25.8 c 15.56,0 20.86,8.05 20.86,18.85 0,10.98 -5.31,19.04 -20.86,19.04 h -16.28 v 21.6 h 15.91 c 31.11,0 45.02,-17.21 45.02,-40.63 0,-23.44 -13.91,-40.65 -45.02,-40.65"
           id="path22"
           style="fill:#ffffff;fill-opacity:1" /><rect
           x="117.99"
           y="299.79999"
           class="st1"
           width="21.780001"
           height="120.31"
           id="rect22"
           style="fill:#ffffff;fill-opacity:1" /><path
           class="st0"
           d="m 118.03,285.88 h 21.78 v -26.3 c -12.03,0 -21.78,9.75 -21.78,21.78 z"
           id="path23"
           style="fill:#0075bf" /><path
           class="st1"
           d="m 242.05,343.86 -57.92,-41.84 v 0.02 c -2.29,-1.41 -4.98,-2.24 -7.86,-2.24 -8.29,0 -15.01,6.72 -15.01,15.01 v 105.3 h 21.89 V 329.4 l 58.91,42.6 v -28.14 z"
           id="path24"
           style="fill:#ffffff;fill-opacity:1" /><path
           class="st0"
           d="m 191.95,376.06 57.92,41.84 v -0.02 c 2.29,1.41 4.98,2.24 7.86,2.24 8.29,0 15.01,-6.72 15.01,-15.01 V 299.8 h -21.89 v 90.71 l -58.91,-42.6 v 28.15 z"
           id="path25"
           style="fill:#0075bf" /></g></g></g></svg>
